<?xml version="1.0" standalone="no"?><!DOCTYPE svg PUBLIC "-//W3C//DTD SVG 1.1//EN" "http://www.w3.org/Graphics/SVG/1.1/DTD/svg11.dtd"><svg width="100%" height="100%" viewBox="0 0 784 261" version="1.1" xmlns="http://www.w3.org/2000/svg" xmlns:xlink="http://www.w3.org/1999/xlink" xml:space="preserve" style="fill-rule:evenodd;clip-rule:evenodd;stroke-linejoin:round;stroke-miterlimit:1.41421;"><g><path d="M172.539,251.709c-94.409,-3.628 -168.567,-59.4 -165.635,-124.57c0.031,-0.697 0.083,-1.389 0.132,-2.082c-5.418,21.207 -4.404,42.94 4.243,63.315c26.645,62.788 115.878,89.537 201.7,61.579c-13.019,1.659 -26.56,2.291 -40.44,1.758ZM329.83,72.9c-27.388,-64.539 -120.9,-91.009 -208.866,-59.121c-18.925,6.859 -36.046,15.866 -51,26.415c30.791,-16.785 70.397,-26.136 113.187,-24.491c68.811,2.643 126.855,32.993 152.141,74.492c-1.251,-5.843 -3.055,-11.622 -5.462,-17.295Z" style="fill:#004990;"/><path d="M4.247,107.762l-0.013,0.033l6.184,4.059l-0.862,2.291l-9.556,-0.924l0.81,-2.157l7.282,1.145l0.013,-0.034l-6.204,-4.008l0.894,-2.375l7.294,1.11l0.013,-0.033l-6.23,-3.941l0.761,-2.021l7.808,5.572l-0.856,2.275l-7.338,-0.992Z" style="fill:#004990;fill-rule:nonzero;"/><path d="M10.071,94.743l-0.018,0.033l5.661,4.761l-1.128,2.173l-9.38,-2.049l1.061,-2.044l7.096,1.998l0.015,-0.032l-5.686,-4.714l1.171,-2.252l7.111,1.964l0.015,-0.031l-5.717,-4.65l0.994,-1.918l7.093,6.459l-1.12,2.157l-7.168,-1.855Z" style="fill:#004990;fill-rule:nonzero;"/><path d="M17.251,82.555l-0.02,0.031l5.128,5.331l-1.35,2.043l-9.112,-3.025l1.271,-1.923l6.845,2.735l0.02,-0.03l-5.157,-5.287l1.399,-2.117l6.864,2.704l0.02,-0.029l-5.197,-5.227l1.192,-1.802l6.372,7.168l-1.339,2.027l-6.936,-2.599Z" style="fill:#004990;fill-rule:nonzero;"/><path d="M25.237,79.626l1.29,-1.733l1.877,1.399l-1.291,1.732l-1.876,-1.398Z" style="fill:#004990;fill-rule:nonzero;"/><path d="M30.947,73.667c0.836,-1.014 0.025,-2.266 -1.321,-3.378c-1.391,-1.144 -2.725,-1.591 -3.504,-0.647c-0.79,0.958 -0.134,2.059 1.296,3.238c1.653,1.363 2.704,1.786 3.529,0.787ZM24.226,62.945l9.193,7.582c0.514,0.423 0.97,0.776 1.268,0.952l-1.328,1.611c-0.231,-0.144 -0.671,-0.46 -1.158,-0.861l-0.033,0.041c0.382,0.783 0.569,1.8 -0.347,2.911c-1.466,1.777 -3.767,1.116 -5.754,-0.522c-2.333,-1.924 -2.926,-3.976 -1.654,-5.518c0.847,-1.028 1.9,-1.116 2.662,-0.908l0.022,-0.028l-4.291,-3.538l1.42,-1.722Z" style="fill:#004990;fill-rule:nonzero;"/><path d="M30.405,64.683c-0.425,-0.389 -0.836,-0.74 -1.177,-0.979l1.361,-1.488c0.423,0.364 0.885,0.713 1.296,1.09l0.024,-0.027c-0.348,-0.685 -0.697,-1.956 0.238,-2.979c0.099,-0.106 0.197,-0.161 0.295,-0.242l1.541,1.41c-0.174,0.109 -0.335,0.232 -0.492,0.403c-0.62,0.678 -0.889,1.799 0.385,2.965l3.746,3.427l-1.509,1.646l-5.708,-5.226Z" style="fill:#004990;fill-rule:nonzero;"/><path d="M33.284,59.263l1.633,-1.626l6.382,3.728l0.026,-0.025l-3.693,-6.409l1.531,-1.524l4.528,8.573l-1.861,1.855l-8.546,-4.572Z" style="fill:#004990;fill-rule:nonzero;"/><path d="M44.257,58.186l1.578,-1.475l1.598,1.708l-1.577,1.476l-1.599,-1.709Z" style="fill:#004990;fill-rule:nonzero;"/><path d="M50.906,53.315c0.995,-0.859 0.407,-2.229 -0.734,-3.551c-1.175,-1.363 -2.416,-2.028 -3.342,-1.229c-0.941,0.812 -0.48,2.007 0.731,3.411c1.399,1.621 2.364,2.215 3.345,1.369ZM46.089,41.615l7.783,9.021c0.436,0.505 0.825,0.929 1.09,1.152l-1.581,1.365c-0.203,-0.181 -0.583,-0.567 -0.995,-1.044l-0.041,0.036c0.245,0.835 0.258,1.869 -0.832,2.81c-1.745,1.505 -3.901,0.466 -5.583,-1.483c-1.975,-2.29 -2.215,-4.413 -0.702,-5.718c1.009,-0.87 2.061,-0.78 2.777,-0.447l0.028,-0.024l-3.635,-4.21l1.691,-1.458Z" style="fill:#004990;fill-rule:nonzero;"/><path d="M57.247,43.067c-1.007,-1.293 -1.941,-1.614 -2.736,-0.994c-0.923,0.718 -0.543,1.997 0.209,2.962l2.527,-1.968ZM61.647,45.96c-0.249,0.443 -0.771,1.353 -1.821,2.172c-2.358,1.836 -4.697,0.943 -6.235,-1.031c-1.703,-2.187 -1.87,-4.772 -0.01,-6.222c1.578,-1.227 3.645,-1.355 5.967,1.627l0.266,0.34l-4.23,3.297c0.972,1.249 2.056,1.615 3.419,0.553c1.079,-0.841 1.335,-1.565 1.474,-2.061l1.17,1.325Z" style="fill:#004990;fill-rule:nonzero;"/><path d="M157.71,89.183c-0.995,-0.445 -1.966,-0.916 -2.916,-1.41l24.18,-28.78c1.908,-0.698 3.826,-1.353 5.753,-1.964l-27.017,32.154Z" style="fill:#004990;fill-rule:nonzero;"/><path d="M137.456,71.904c11.509,-7.546 23.41,-13.654 36.114,-18.007c-1.262,-0.29 -2.35,-0.44 -3.827,-0.548c-9.428,-0.691 -19.52,0.751 -29.661,3.684l-0.004,-0.303c12.017,-4.203 24.129,-6.034 35.308,-5.215c1.425,0.104 2.968,0.277 4.322,0.469l-0.638,0.216c-14.239,4.952 -28.073,12.204 -40.7,21.08c-0.313,-0.453 -0.618,-0.912 -0.914,-1.376Z" style="fill:#004990;fill-rule:nonzero;"/><path d="M189.542,101.479c5.613,-0.12 11.431,-0.694 17.377,-1.725c1.821,-0.316 3.652,-0.675 5.496,-1.077l-0.103,0.504c-1.409,6.693 -4.114,13.836 -8.219,21.258c-0.495,0.892 -1.004,1.779 -1.527,2.66l-4.58,0l0.461,-0.825c4.209,-7.609 6.917,-14.781 8.297,-21.618c-6.143,1.339 -12.139,2.055 -17.974,2.442l0.772,-1.619Z" style="fill:#004990;fill-rule:nonzero;"/><path d="M159.432,97.034c5.669,2.016 11.842,3.355 18.388,4.007c1.512,0.15 3.04,0.263 4.588,0.341c-0.325,0.653 -0.658,1.304 -1,1.954c-3.542,6.765 -7.892,13.396 -12.909,19.763l-4.221,0c4.889,-6.419 9.1,-13.091 12.488,-19.883c-7.015,-0.348 -13.65,-1.45 -19.762,-3.293l2.428,-2.889Z" style="fill:#004990;fill-rule:nonzero;"/><path d="M147.62,96.31c-5.741,-2.747 -10.833,-6.292 -15.114,-10.621c1.389,-1.129 2.797,-2.239 4.225,-3.329c3.863,4.248 8.464,7.802 13.664,10.648c0.937,0.512 1.892,1.001 2.868,1.468l-2.66,3.166l-15.171,18.057l-3.076,-1.221l15.264,-18.168Z" style="fill:#004990;fill-rule:nonzero;"/><path d="M127.124,79.214c-2.8,-4.036 -5.035,-8.569 -6.622,-13.593c1.767,-0.982 3.548,-1.921 5.343,-2.814c1.515,5.125 3.687,9.752 6.442,13.875l0.399,0.581c-1.415,1.265 -2.894,2.432 -4.35,3.621c-8.553,6.96 -16.286,14.599 -23.096,22.832l-3.054,-1.213c7.388,-8.477 15.739,-16.282 24.938,-23.289Z" style="fill:#004990;fill-rule:nonzero;"/><path d="M138.607,152.054c-0.462,-0.488 -0.937,-0.967 -1.418,-1.435c6.244,-4.993 12.086,-10.389 17.406,-16.08l-20.004,-7.94l2.567,-3.055l20.163,8.003l2.918,1.157c-0.9,1.005 -1.845,1.988 -2.807,2.961c-5.787,5.842 -12.099,11.35 -18.825,16.389Z" style="fill:#004990;fill-rule:nonzero;"/><path d="M107.093,111.611l20.752,8.236l3.075,1.221l-2.567,3.055l-11.778,14.018c-1.055,-0.374 -2.128,-0.725 -3.218,-1.051l11.921,-14.187l-20.538,-8.152c0.767,-1.053 1.551,-2.1 2.353,-3.14Z" style="fill:#004990;fill-rule:nonzero;"/><path d="M81.396,133.959c3.657,-7.878 8.357,-15.586 13.899,-22.957l-18.052,-7.166c1.319,-1.869 2.705,-3.707 4.151,-5.511l0.559,0.222l-1.058,2.665l16.811,6.673l3.233,1.283c-0.786,1.045 -1.557,2.099 -2.309,3.158c-4.907,6.911 -9.066,14.09 -12.322,21.405c-1.622,0.039 -3.26,0.115 -4.912,0.228Z" style="fill:#004990;fill-rule:nonzero;"/><path d="M93.332,175.669c11.85,-4.494 23.509,-10.519 34.092,-17.802c-3.38,-3.409 -7.357,-6.297 -11.85,-8.633l2.722,-3.241c5.115,2.281 9.64,5.223 13.473,8.783c0.442,0.411 0.875,0.829 1.298,1.257c-1.49,1.025 -3,2.029 -4.523,3.006c-11.065,7.101 -22.975,13.056 -35.213,17.1l0.001,-0.47Z" style="fill:#004990;"/><path d="M84.886,170.975l21.454,-25.533c-5.116,-1.611 -10.696,-2.65 -16.662,-3.081c0.252,-0.684 0.512,-1.368 0.782,-2.05c6.508,0.111 12.613,0.909 18.214,2.351c1.124,0.29 2.226,0.605 3.308,0.946l-2.463,2.932l-24.257,28.87c-0.182,-1.444 -0.308,-2.922 -0.376,-4.435Z" style="fill:#004990;fill-rule:nonzero;"/><path d="M61.897,143.762c5.706,-1.402 11.251,-2.369 16.587,-2.918c1.726,-0.178 3.427,-0.311 5.109,-0.402c-0.206,0.563 -0.404,1.126 -0.599,1.69c-2.03,5.908 -3.446,11.869 -4.164,17.817c-0.69,5.697 -0.699,11.116 -0.069,16.214c-2.24,-1.316 -4.274,-2.824 -6.091,-4.505c-0.064,-3.187 0.107,-6.482 0.516,-9.875c0.788,-6.515 2.412,-13.047 4.763,-19.507c-5.154,0.279 -10.523,0.962 -16.069,2.068l0.017,-0.582Z" style="fill:#004990;fill-rule:nonzero;"/><path d="M161.469,164.263c-3.759,2.371 -7.618,4.551 -11.545,6.523l-0.334,-0.984c4.067,-2.279 8.039,-4.771 11.879,-7.465l0,1.926Z" style="fill:#004990;fill-rule:nonzero;"/><path d="M137.219,160.89c2.776,3.787 5.125,7.992 6.612,12.717c-4.29,1.922 -8.765,3.58 -13.111,4.9l-0.117,-0.359c2.401,-0.901 4.803,-1.719 7.304,-2.735c-1.317,-4.201 -3.058,-7.902 -5.4,-11.367c1.588,-1.025 3.159,-2.079 4.712,-3.156Z" style="fill:#004990;fill-rule:nonzero;"/><path d="M185.378,94.889c-1.631,-0.032 -3.237,-0.106 -4.813,-0.224c2.589,-6.653 4.353,-13.366 5.158,-20.021c0.384,-3.181 0.534,-6.239 0.467,-9.171l5.355,-6.373c0.45,4.272 0.409,8.848 -0.179,13.71c-0.887,7.341 -2.942,14.755 -5.988,22.079Z" style="fill:#004990;fill-rule:nonzero;"/><path d="M131.756,185.312c-12.869,4.491 -25.917,6.471 -38.088,5.579c-41.507,-3.04 -55.836,-39.377 -34.041,-78.783c15.713,-28.41 46.301,-52.061 77.098,-61.46l0.003,0.304c-28.827,10.419 -56.705,32.648 -71.458,59.321c-16.393,29.64 -12.35,57.543 8.324,70.847l0.803,0.504c6.681,4.095 15.026,6.708 24.914,7.433c10.392,0.76 21.367,-0.821 32.38,-4.055l0.065,0.31Z" style="fill:#004990;"/><path d="M197.881,58.441c10.876,7.01 16.46,18.756 15.488,33.195c-1.886,0.451 -3.754,0.855 -5.604,1.21c0.61,-11.226 -2.772,-20.788 -9.547,-27.71c0.005,-2.287 -0.109,-4.519 -0.337,-6.695Z" style="fill:#004990;fill-rule:nonzero;"/><path d="M272.04,176.546c-1.171,-2.006 -2.375,-3.803 -3.629,-5.271c-1.528,-1.783 -2.813,-2.652 -4.32,-3.216c8.016,-3.532 13.336,-10.272 13.336,-19.261c0,-9.467 -4.945,-16.407 -13.007,-20.036c-4.746,-2.137 -9.263,-2.99 -17.388,-3.132c-6.016,-0.106 -16.904,0.34 -22.3,0.485l-0.003,0.413c11.978,0.271 21.632,1.548 27.871,7.134c3.636,3.256 5.995,8.272 5.886,15.062c-0.154,9.541 -5.196,16.18 -13.954,19.387c2.146,0.896 4.491,2.24 8.029,8.439l19.479,-0.004ZM336.637,125.826l-18.6,44.258l-0.142,0l-18.6,-44.258l-20.926,0l23.301,50.724l16.296,0l-16.296,0.001l11.25,24.493l10.092,0l11.249,-24.493l0.001,0l23.303,-50.725l-20.928,0ZM216.403,176.55c-3.928,6.856 -11.437,10.809 -21.978,10.809l-4.654,0l0,-47.847l4.654,0c16.098,0 25.124,9.219 25.124,23.924c0,5.075 -1.075,9.497 -3.146,13.114ZM192.667,125.826l-20.39,0l0,75.218l20.39,0c25.424,0 38.169,-9.997 42.544,-24.486c1.226,-4.062 1.792,-8.477 1.796,-13.122c0.017,-21.221 -11.791,-37.61 -44.34,-37.61ZM252.561,176.552c0.883,1.554 1.842,3.412 2.892,5.645l8.866,18.847l19.625,0c-3.866,-7.045 -7.636,-17.167 -11.904,-24.494l-19.479,0.002Z" style="fill:#004990;"/><path d="M398.033,130.495l-0.081,0l-6.928,23.043l-3.603,0l-6.611,-23.043l-0.082,0l0,23.043l-4.593,0l0,-27.637l7.564,0l5.701,20.629l0.079,0l5.822,-20.629l7.325,0l0,27.637l-4.593,0l0,-23.043Z" style="fill:#004990;fill-rule:nonzero;"/><path d="M408.366,133.146l4.908,0l0,20.392l-4.908,0l0,-20.392ZM408.289,125.893l5.065,0l0,4.832l-5.065,0l0,-4.832Z" style="fill:#004990;fill-rule:nonzero;"/><path d="M420.166,128.95l4.908,-1.505l0,5.701l4.078,0l0,3.603l-4.078,0l0,10.573c0,2.177 0.792,2.811 2.217,2.811c0.873,0 1.506,-0.238 1.861,-0.435l0,3.484c-0.752,0.356 -1.82,0.672 -3.286,0.672c-3.641,0 -5.7,-1.663 -5.7,-5.938l0,-11.167l-3.246,0l0,-3.603l3.246,0l0,-4.196Z" style="fill:#004990;fill-rule:nonzero;"/><path d="M440.158,149.935c3.09,0 4.319,-2.217 4.319,-6.85c0,-4.276 -1.625,-6.572 -3.961,-6.533c-2.575,0.04 -3.565,2.415 -3.565,6.572c0,4.792 1.544,6.811 3.207,6.811ZM433.072,156.706c1.149,0.633 3.446,1.743 6.02,1.743c4.629,0 5.385,-3.208 5.385,-6.415l0,-1.941l-0.081,0c-0.791,1.585 -2.177,3.445 -5.384,3.445c-2.853,0 -7.127,-1.901 -7.127,-10.137c0,-5.621 2.018,-10.572 7.363,-10.572c2.971,0 4.357,1.704 5.383,3.486l0.161,0c0,-1.071 0.119,-2.099 0.157,-3.169l4.436,0c-0.08,1.07 -0.16,2.139 -0.16,3.207l0,15.047c0,6.375 -1.94,10.927 -9.423,10.927c-3.245,0 -5.82,-0.831 -7.007,-1.266l0.277,-4.355Z" style="fill:#004990;fill-rule:nonzero;"/><rect x="454.334" y="125.827" width="4.908" height="27.711" style="fill:#004990;fill-rule:nonzero;"/><path d="M464.786,133.146l4.91,0l0,20.392l-4.91,0l0,-20.392ZM464.707,125.893l5.065,0l0,4.832l-5.065,0l0,-4.832Z" style="fill:#004990;fill-rule:nonzero;"/><path d="M486.007,141.58c0,-3.603 -1.189,-5.424 -3.408,-5.424c-2.573,0 -3.637,2.732 -3.637,5.424l7.045,0ZM489.729,152.548c-1.031,0.435 -3.168,1.306 -6.1,1.306c-6.571,0 -9.423,-4.711 -9.423,-10.215c0,-6.098 3.209,-10.81 8.393,-10.81c4.396,0 8.159,2.575 8.159,10.889l0,0.95l-11.796,0c0,3.485 1.385,5.584 5.182,5.584c3.011,0 4.436,-0.912 5.346,-1.585l0.239,3.881Z" style="fill:#004990;fill-rule:nonzero;"/><path d="M502.676,150.252c2.891,0 3.883,-3.129 3.883,-6.968c0,-3.96 -1.11,-6.852 -3.802,-6.852c-2.734,0 -3.686,2.654 -3.686,6.731c0,4.713 0.752,7.089 3.605,7.089ZM511.465,125.827l0,24.227c0,1.464 0.042,2.732 0.16,3.484l-4.595,0c-0.076,-0.593 -0.158,-1.781 -0.158,-3.168l-0.118,0c-0.791,1.742 -2.257,3.484 -5.424,3.484c-5.065,0 -7.165,-4.83 -7.165,-10.493c0,-6.651 2.651,-10.532 7.049,-10.532c2.927,0 4.55,1.664 5.262,3.247l0.083,0l0,-10.249l4.906,0Z" style="fill:#004990;fill-rule:nonzero;"/><path d="M527.068,133.146l4.907,0l0,20.392l-4.907,0l0,-20.392ZM526.989,125.893l5.068,0l0,4.832l-5.068,0l0,-4.832Z" style="fill:#004990;fill-rule:nonzero;"/><path d="M536.924,136.473c0,-1.465 -0.079,-2.574 -0.155,-3.327l4.906,0c0.042,1.07 0.16,2.139 0.16,3.207l0.079,0c0.751,-1.583 2.333,-3.524 5.147,-3.524c3.446,0 4.555,2.139 5.145,3.247c0.99,-1.425 2.456,-3.247 5.467,-3.247c4.431,0 5.857,3.169 5.857,8.119l0,12.59l-4.908,0l0,-12.868c0,-2.535 -0.792,-3.802 -2.613,-3.802c-2.177,0 -3.327,2.06 -3.327,4.315l0,12.355l-4.907,0l0,-12.868c0,-2.535 -0.795,-3.802 -2.616,-3.802c-2.178,0 -3.324,2.06 -3.324,4.315l0,12.355l-4.911,0l0,-17.065Z" style="fill:#004990;fill-rule:nonzero;"/><path d="M381.007,197.173l1.702,0c5.7,0 8.274,-3.88 8.274,-9.939c0,-6.059 -2.574,-9.94 -8.274,-9.94l-1.702,0l0,19.879ZM375.938,173.413l7.208,0c8.63,0 13.225,4.674 13.225,13.821c0,9.304 -5.544,13.818 -13.225,13.818l-7.208,0l0,-27.639Z" style="fill:#004990;fill-rule:nonzero;"/><path d="M411.81,189.093c0,-3.601 -1.189,-5.424 -3.406,-5.424c-2.574,0 -3.642,2.733 -3.642,5.424l7.048,0ZM415.531,200.063c-1.029,0.434 -3.166,1.306 -6.097,1.306c-6.572,0 -9.422,-4.709 -9.422,-10.217c0,-6.096 3.207,-10.809 8.392,-10.809c4.396,0 8.159,2.574 8.159,10.889l0,0.95l-11.801,0c0,3.486 1.386,5.584 5.187,5.584c3.01,0 4.436,-0.91 5.346,-1.584l0.236,3.881Z" style="fill:#004990;fill-rule:nonzero;"/><path d="M436.636,197.688c0,1.266 0.04,2.455 0.159,3.364l-4.594,0c-0.037,-1.029 -0.158,-2.098 -0.158,-3.128l-0.115,-0.04l0.038,0.04c-0.95,1.505 -2.22,3.445 -5.427,3.445c-4.632,0 -6.017,-3.445 -6.017,-7.562l0,-13.147l4.909,0l0,12.235c0,3.13 0.872,4.436 2.93,4.436c2.612,0 3.364,-2.376 3.364,-4.99l0,-11.681l4.911,0l0,17.028Z" style="fill:#004990;fill-rule:nonzero;"/><path d="M443.052,176.464l4.908,-1.506l0,5.702l4.078,0l0,3.603l-4.078,0l0,10.574c0,2.176 0.793,2.811 2.218,2.811c0.873,0 1.506,-0.238 1.86,-0.436l0,3.486c-0.752,0.354 -1.819,0.671 -3.285,0.671c-3.646,0 -5.701,-1.663 -5.701,-5.939l0,-11.167l-3.25,0l0,-3.603l3.25,0l0,-4.196Z" style="fill:#004990;fill-rule:nonzero;"/><path d="M454.771,196.302c0.792,0.316 2.809,1.346 5.108,1.346c1.783,0 3.166,-0.436 3.166,-2.02c0,-0.791 -0.395,-1.545 -2.176,-2.574l-2.021,-1.187c-2.056,-1.229 -4.314,-2.536 -4.314,-5.743c0,-2.811 2.733,-5.781 7.048,-5.781c2.611,0 4.631,0.674 5.109,0.832l-0.277,3.802c-1.228,-0.477 -2.535,-0.911 -4.316,-0.911c-1.981,0 -2.813,0.752 -2.813,1.98c0,1.108 0.869,1.701 2.297,2.613l2.412,1.544c2.538,1.623 3.805,2.773 3.805,5.149c0,3.761 -3.17,6.017 -7.603,6.017c-2.534,0 -4.633,-0.594 -5.662,-0.989l0.237,-4.078Z" style="fill:#004990;fill-rule:nonzero;"/><path d="M485.459,200.536c-1.15,0.438 -2.85,0.833 -4.831,0.833c-6.732,0 -9.583,-4.709 -9.583,-10.493c0,-5.82 3.008,-10.533 9.859,-10.533c1.543,0 3.365,0.477 4.277,0.832l-0.279,3.881c-0.872,-0.436 -2.099,-0.99 -3.445,-0.99c-3.722,0 -5.345,2.494 -5.345,6.849c0,3.803 1.825,6.733 5.583,6.733c1.191,0 2.812,-0.555 3.486,-0.988l0.278,3.876Z" style="fill:#004990;fill-rule:nonzero;"/><path d="M488.623,171.356l4.91,0l0,11.917l0.121,0c0.87,-1.267 2.017,-2.93 5.068,-2.93c4.629,0 6.017,3.445 6.017,7.565l0,13.144l-4.909,0l0,-12.236c0,-3.127 -0.795,-4.433 -2.811,-4.433c-2.577,0 -3.486,2.177 -3.486,4.79l0,11.879l-4.91,0l0,-29.696Z" style="fill:#004990;fill-rule:nonzero;"/><path d="M520.573,189.093c0,-3.601 -1.185,-5.424 -3.401,-5.424c-2.576,0 -3.643,2.733 -3.643,5.424l7.044,0ZM524.297,200.063c-1.029,0.434 -3.167,1.306 -6.097,1.306c-6.573,0 -9.423,-4.709 -9.423,-10.217c0,-6.096 3.207,-10.809 8.395,-10.809c4.393,0 8.156,2.574 8.156,10.889l0,0.95l-11.799,0c0,3.486 1.387,5.584 5.186,5.584c3.012,0 4.434,-0.91 5.342,-1.584l0.24,3.881Z" style="fill:#004990;fill-rule:nonzero;"/><path d="M529.289,184.026c0,-1.267 -0.042,-2.454 -0.161,-3.366l4.596,0c0.039,1.03 0.156,2.099 0.156,3.128l0.12,0l-0.039,0c0.709,-1.226 2.1,-3.445 5.424,-3.445c4.633,0 6.018,3.445 6.018,7.565l0,13.144l-4.911,0l0,-12.236c0,-3.127 -0.79,-4.433 -2.808,-4.433c-2.575,0 -3.488,2.177 -3.488,4.79l0,11.879l-4.907,0l0,-17.026Z" style="fill:#004990;fill-rule:nonzero;"/><path d="M568.052,185.452c2.69,0 4.511,-1.386 4.511,-4.198c0,-3.167 -1.661,-3.96 -4.511,-3.96l-2.064,0l0,8.158l2.064,0ZM560.921,173.413l8.632,0c4.912,0 8.237,2.219 8.237,7.286c0,3.603 -2.259,6.019 -5.347,6.496l0,0.117c1.031,0.158 2.179,0.633 3.049,3.208l3.603,10.532l-5.386,0l-2.729,-8.988c-0.675,-2.178 -1.982,-2.891 -3.839,-2.891l-1.153,0l0,11.879l-5.067,0l0,-27.639Z" style="fill:#004990;fill-rule:nonzero;"/><path d="M593.863,189.093c0,-3.601 -1.186,-5.424 -3.402,-5.424c-2.577,0 -3.642,2.733 -3.642,5.424l7.044,0ZM597.588,200.063c-1.03,0.434 -3.169,1.306 -6.1,1.306c-6.572,0 -9.423,-4.709 -9.423,-10.217c0,-6.096 3.207,-10.809 8.396,-10.809c4.393,0 8.155,2.574 8.155,10.889l0,0.95l-11.797,0c0,3.486 1.386,5.584 5.184,5.584c3.012,0 4.436,-0.91 5.347,-1.584l0.238,3.881Z" style="fill:#004990;fill-rule:nonzero;"/><path d="M603.053,180.66l4.906,0l0,20.392l-4.906,0l0,-20.392ZM602.972,171.99l5.067,0l0,4.831l-5.067,0l0,-4.831Z" style="fill:#004990;fill-rule:nonzero;"/><path d="M612.475,196.302c0.787,0.316 2.807,1.346 5.105,1.346c1.784,0 3.17,-0.436 3.17,-2.02c0,-0.791 -0.396,-1.545 -2.182,-2.574l-2.017,-1.187c-2.059,-1.229 -4.316,-2.536 -4.316,-5.743c0,-2.811 2.733,-5.781 7.048,-5.781c2.613,0 4.633,0.674 5.108,0.832l-0.276,3.802c-1.228,-0.477 -2.537,-0.911 -4.318,-0.911c-1.979,0 -2.811,0.752 -2.811,1.98c0,1.108 0.869,1.701 2.297,2.613l2.414,1.544c2.535,1.623 3.802,2.773 3.802,5.149c0,3.761 -3.168,6.017 -7.6,6.017c-2.538,0 -4.637,-0.594 -5.664,-0.989l0.24,-4.078Z" style="fill:#004990;fill-rule:nonzero;"/><path d="M640.547,189.093c0,-3.601 -1.19,-5.424 -3.407,-5.424c-2.574,0 -3.64,2.733 -3.64,5.424l7.047,0ZM644.27,200.063c-1.032,0.434 -3.171,1.306 -6.102,1.306c-6.57,0 -9.421,-4.709 -9.421,-10.217c0,-6.096 3.207,-10.809 8.393,-10.809c4.397,0 8.157,2.574 8.157,10.889l0,0.95l-11.797,0c0,3.486 1.386,5.584 5.187,5.584c3.006,0 4.435,-0.91 5.344,-1.584l0.239,3.881Z" style="fill:#004990;fill-rule:nonzero;"/><path d="M647.358,173.413l5.464,0l5.581,21.305l0.081,0l5.741,-21.305l5.225,0l-8.434,27.639l-5.344,0l-8.314,-27.639Z" style="fill:#004990;fill-rule:nonzero;"/><path d="M681.214,189.093c0,-3.601 -1.191,-5.424 -3.407,-5.424c-2.574,0 -3.639,2.733 -3.639,5.424l7.046,0ZM684.936,200.063c-1.032,0.434 -3.17,1.306 -6.1,1.306c-6.572,0 -9.422,-4.709 -9.422,-10.217c0,-6.096 3.206,-10.809 8.393,-10.809c4.396,0 8.156,2.574 8.156,10.889l0,0.95l-11.795,0c0,3.486 1.383,5.584 5.186,5.584c3.007,0 4.435,-0.91 5.344,-1.584l0.238,3.881Z" style="fill:#004990;fill-rule:nonzero;"/><path d="M690.079,184.026c0,-1.267 -0.037,-2.454 -0.158,-3.366l4.436,0c0.039,1.228 0.157,2.496 0.157,3.723l0.082,0c0.592,-1.585 2.137,-4.04 5.184,-4.04c0.318,0 0.554,0.08 0.831,0.119l0,4.594c-0.431,-0.119 -0.868,-0.199 -1.386,-0.199c-2.017,0 -4.234,1.228 -4.234,5.029l0,11.166l-4.912,0l0,-17.026Z" style="fill:#004990;fill-rule:nonzero;"/><path d="M712.886,197.766c2.854,0 3.606,-2.375 3.606,-7.089c0,-4.077 -0.951,-6.73 -3.684,-6.73c-2.693,0 -3.802,2.89 -3.802,6.85c0,3.84 0.99,6.969 3.88,6.969ZM709.006,171.356l0,12.235l0.082,0c0.712,-1.585 2.337,-3.248 5.263,-3.248c4.397,0 7.047,3.881 7.047,10.533c0,5.662 -2.096,10.493 -7.166,10.493c-3.164,0 -4.63,-1.742 -5.421,-3.485l-0.119,0c0,1.388 -0.081,2.575 -0.162,3.168l-4.591,0c0.117,-0.751 0.162,-2.018 0.162,-3.483l0,-26.213l4.905,0Z" style="fill:#004990;fill-rule:nonzero;"/><path d="M736.09,191.075l-0.434,0c-4.197,0 -6.694,0.87 -6.694,3.841c0,1.861 1.231,3.127 3.131,3.127c2.928,0 3.997,-2.177 3.997,-5.821l0,-1.147ZM726.43,181.848c1.385,-0.634 3.325,-1.505 6.453,-1.505c6.335,0 7.799,3.089 7.799,8.197l0,8.91c0,1.465 0.162,2.811 0.279,3.602l-4.432,0c-0.24,-0.791 -0.28,-1.78 -0.28,-2.77l-0.077,0c-1.23,1.662 -2.775,3.087 -5.701,3.087c-3.171,0 -6.102,-2.177 -6.102,-5.978c0,-5.544 4.516,-6.931 10.732,-6.931l0.989,0l0,-0.752c0,-2.019 -0.989,-3.88 -3.803,-3.88c-2.451,0 -4.631,1.187 -5.58,1.98l-0.277,-3.96Z" style="fill:#004990;fill-rule:nonzero;"/><path d="M745.396,184.026c0,-1.267 -0.042,-2.454 -0.16,-3.366l4.593,0c0.044,1.03 0.161,2.099 0.161,3.128l0.117,0l-0.039,0c0.713,-1.226 2.098,-3.445 5.424,-3.445c4.631,0 6.022,3.445 6.022,7.565l0,13.144l-4.914,0l0,-12.236c0,-3.127 -0.792,-4.433 -2.811,-4.433c-2.574,0 -3.485,2.177 -3.485,4.79l0,11.879l-4.908,0l0,-17.026Z" style="fill:#004990;fill-rule:nonzero;"/><path d="M774.062,197.766c2.889,0 3.878,-3.129 3.878,-6.969c0,-3.96 -1.108,-6.85 -3.802,-6.85c-2.731,0 -3.68,2.653 -3.68,6.73c0,4.714 0.752,7.089 3.604,7.089ZM782.851,171.356l0,26.213c0,1.465 0.039,2.732 0.157,3.483l-4.593,0c-0.079,-0.593 -0.156,-1.78 -0.156,-3.168l-0.119,0c-0.794,1.743 -2.259,3.485 -5.427,3.485c-5.067,0 -7.166,-4.831 -7.166,-10.493c0,-6.652 2.655,-10.533 7.049,-10.533c2.931,0 4.553,1.663 5.268,3.248l0.076,0l0,-12.235l4.911,0Z" style="fill:#004990;fill-rule:nonzero;"/></g></svg>