<?xml version="1.0" standalone="no"?>
<!DOCTYPE svg PUBLIC "-//W3C//DTD SVG 1.1//EN" "http://www.w3.org/Graphics/SVG/1.1/DTD/svg11.dtd">
<svg width="100%" height="100%" viewBox="0 0 577 246" version="1.1" xmlns="http://www.w3.org/2000/svg" xmlns:xlink="http://www.w3.org/1999/xlink" xml:space="preserve" style="fill-rule:evenodd;clip-rule:evenodd;stroke-linejoin:round;stroke-miterlimit:1.41421;">
    <g>
        <g transform="matrix(1.99712,0,0,1.99712,-246.722,-791.918)">
            <path d="M265.75,406.443C271.673,409.332 276.413,414.295 279.3,420.148C280.263,422.222 281.077,424.297 281.67,426.668C282.707,430.816 283.151,436.446 282.336,441.114C282.336,442.077 282.04,442.892 281.892,443.855C279.745,452.967 274.339,460.746 266.194,464.895C264.269,465.71 262.343,466.45 260.196,466.969C259.826,467.117 259.382,467.488 259.307,468.006C260.566,470.155 262.121,472.081 263.75,473.933C264.491,474.674 265.009,475.563 265.898,476.155C268.341,478.378 271.007,480.675 274.413,481.564L275.524,481.86C277.079,482.23 278.634,482.453 280.189,482.23C281.225,482.156 282.04,481.712 283.077,481.638C283.447,481.712 283.743,481.86 283.817,482.156C284.039,482.601 283.817,482.971 283.743,483.342C282.632,484.527 280.929,484.972 279.152,485.268C276.19,485.86 272.488,486.231 269.304,485.712C267.527,485.712 266.12,485.046 264.565,484.897C258.197,482.971 251.829,478.897 249.533,472.525C249.015,471.266 249.311,469.636 249.015,468.303C249.089,468.006 248.793,467.932 248.645,467.784C247.534,467.71 246.645,467.34 245.683,467.043L245.387,467.043C245.238,466.969 245.09,466.969 244.942,466.969C242.647,478.6 246.645,490.528 255.013,497.195C255.975,497.788 256.716,498.455 257.604,498.973C257.16,499.121 256.716,498.751 256.346,498.603C247.83,494.751 242.795,486.453 241.388,476.6C240.87,473.266 240.944,468.895 241.684,465.784L241.684,465.487C237.908,463.709 234.576,461.265 231.688,458.005C223.542,449.115 221.099,432.891 226.578,421.111C231.021,410.665 241.24,403.331 253.384,403.479C257.975,403.553 261.899,404.665 265.75,406.443ZM271.821,443.262C270.415,452.078 266.49,460.376 258.715,464.45C257.012,465.191 255.161,465.71 253.236,465.635C252.717,465.265 251.755,465.413 251.236,465.043C249.311,464.45 247.608,463.487 246.201,462.154C247.386,457.931 249.533,454.301 252.125,451.041C256.642,445.559 263.75,442.003 271.821,443.262ZM270.118,422.815C271.821,427.853 272.636,433.483 272.192,439.336C259.011,438.151 246.719,441.558 238.352,449.263C237.167,446.152 236.501,443.188 236.057,439.929C235.834,439.114 235.834,438.151 235.686,437.336C235.612,434.595 235.464,431.409 235.908,428.816C235.983,427.408 236.279,426.149 236.427,424.741C237.834,417.407 240.795,410.369 247.386,407.332C248.571,407.035 249.533,406.517 250.866,406.22C258.345,406.072 263.232,410.517 266.934,416.148C268.193,418.148 269.378,420.444 270.118,422.815Z" style="fill:rgb(149,151,153);"/>
        </g>
        <g transform="matrix(1.99712,0,0,1.99712,-246.722,-122.723)">
            <path d="M332.318,104.7C332.614,105.367 332.91,106.108 332.762,106.923L332.836,122.481C332.91,123.147 333.133,123.592 333.651,123.962C334.762,124.333 335.65,123.814 336.391,123.147C336.687,123.147 337.205,122.999 337.279,123.444C337.353,124.184 336.835,124.703 336.391,125.147C334.688,126.555 332.466,128.111 330.023,127C328.838,126.259 328.097,124.703 327.431,123.518C325.506,124.851 323.729,126.259 321.433,127.148C319.804,127.592 317.657,127.518 316.546,126.259C315.287,124.851 315.213,122.184 315.954,120.554C317.212,117.887 320.026,116.554 322.692,115.22C324.173,114.479 325.802,113.961 327.209,113.22C327.949,112.701 327.505,111.516 327.579,110.701C327.431,108.33 328.246,104.997 325.58,104.182C324.025,103.96 322.544,104.626 321.729,105.96C320.545,107.367 320.619,109.738 318.693,110.479C317.731,110.775 316.694,111.442 315.658,110.849C315.361,110.553 315.287,110.034 315.361,109.59C315.806,107.59 317.434,105.886 319.138,104.774C322.248,102.848 326.617,102.182 330.467,103.293C331.281,103.515 331.874,104.108 332.318,104.7ZM327.579,115.146C327.579,118.11 327.949,121.666 325.654,123.221C324.913,123.814 323.803,124.184 322.692,123.962C321.285,123.444 320.915,121.962 320.915,120.406C320.841,117.147 324.173,115.961 326.691,114.924C326.987,114.998 327.505,114.776 327.579,115.146Z" style="fill:black;"/>
        </g>
        <g transform="matrix(1.99712,0,0,1.99712,-246.722,-791.918)">
            <path d="M257.604,498.973C260.27,500.233 263.01,500.529 266.268,500.455C269.674,500.159 273.006,499.862 274.487,496.603C275.302,494.677 275.376,492.306 275.45,489.935C275.598,488.972 275.45,488.083 275.524,487.12C277.745,487.12 279.745,486.972 281.596,486.527C283.521,486.157 285.372,485.638 286.779,484.527C286.853,488.083 287.223,491.861 286.853,495.417C286.705,495.936 286.409,496.306 286.113,496.677C285.002,497.714 283.521,498.232 282.188,498.973C278.56,500.603 274.783,501.937 270.415,502.529C267.231,503.196 263.454,502.974 259.826,503.048C259.455,502.826 258.789,503.048 258.493,502.826C257.012,502.826 255.679,502.603 254.42,502.307C253.532,502.159 252.643,501.937 251.829,501.863C251.829,501.715 251.607,501.64 251.458,501.788C244.498,499.788 238.5,495.862 234.353,490.083C232.798,487.935 231.762,485.49 230.577,483.119C230.577,482.527 230.133,482.008 229.985,481.341C229.392,479.563 229.096,478.082 228.8,476.155C228.504,476.007 228.8,475.859 228.726,475.637C228.504,474.822 228.43,474.081 228.43,473.044C228.059,467.414 229.614,462.598 231.688,458.005C234.576,461.265 237.908,463.709 241.684,465.487L241.684,465.784C240.944,468.895 240.87,473.266 241.388,476.6C242.795,486.453 247.83,494.751 256.346,498.603C256.716,498.751 257.16,499.121 257.604,498.973" style="fill:black;"/>
        </g>
        <g transform="matrix(1.99712,0,0,1.99712,-246.722,-791.918)">
            <path d="M298.331,473.118C298.627,473.637 298.627,474.229 298.331,474.822C297.664,475.192 296.924,475.489 295.961,475.489C293.813,475.637 291.592,475.711 290.481,477.415C289.593,479.637 289.963,482.379 289.963,484.897C290.111,488.676 290.333,492.454 290.111,496.232C289.889,498.381 287.89,498.751 286.409,499.714C277.227,504.826 262.343,505.715 251.755,501.937L251.458,501.788C251.607,501.64 251.829,501.715 251.829,501.863C252.643,501.937 253.532,502.159 254.42,502.307C255.679,502.603 257.012,502.826 258.493,502.826C258.789,503.048 259.455,502.826 259.826,503.048C263.454,502.974 267.231,503.196 270.415,502.529C274.783,501.937 278.56,500.603 282.188,498.973C283.521,498.232 285.002,497.714 286.113,496.677C286.409,496.306 286.705,495.936 286.853,495.417C287.223,491.861 286.853,488.083 286.779,484.527C286.853,484.231 287.001,484.008 286.927,483.564L286.705,483.045C286.705,481.193 286.409,478.822 286.927,477.118C287.149,476.229 287.668,475.489 288.482,475.044C290.185,474.155 292.851,474.674 294.702,473.859C295.073,473.637 295.443,473.34 295.369,472.822C296.405,472.822 297.664,472.599 298.331,473.118" style="fill:rgb(149,151,153);"/>
        </g>
        <g transform="matrix(1.99712,0,0,1.99712,-246.722,-791.918)">
            <path d="M283.595,471.859L294.332,471.562C294.776,471.636 295.22,471.859 295.369,472.377L295.369,472.822C295.443,473.34 295.073,473.637 294.702,473.859C292.851,474.674 290.185,474.155 288.482,475.044C287.668,475.489 287.149,476.229 286.927,477.118C286.409,478.822 286.705,481.193 286.705,483.045C286.557,482.675 285.965,482.897 285.52,482.823C284.928,482.971 284.409,483.193 283.743,483.342C283.817,482.971 284.039,482.601 283.817,482.156C283.743,481.86 283.447,481.712 283.077,481.638C282.04,481.712 281.225,482.156 280.189,482.23C278.634,482.453 277.079,482.23 275.524,481.86C275.302,479.637 275.746,476.896 273.969,475.637C272.71,474.6 270.859,474.451 268.637,474.378C267.749,474.155 266.786,474.303 265.972,473.933L265.305,473.266C265.157,472.822 265.379,472.377 265.453,472.007C266.268,471.266 267.675,471.636 268.86,471.488C273.821,471.636 278.486,472.007 283.595,471.859" style="fill:black;"/>
        </g>
        <g transform="matrix(1.99712,0,0,1.99712,-246.722,-791.918)">
            <path d="M342.537,482.897C344.684,488.009 343.129,494.232 339.723,497.566C336.761,500.751 331.207,502.381 326.172,500.899C321.803,499.566 317.879,495.788 316.916,490.898C315.954,485.12 318.471,480.823 322.248,477.785C325.432,475.118 331.726,474.748 335.724,476.452C338.76,477.489 341.352,480.156 342.537,482.897ZM335.872,481.193C337.575,484.379 338.168,489.639 336.909,493.343C335.946,496.306 334.169,499.418 330.615,500.01C327.209,500.159 325.358,497.418 324.025,494.899C322.099,490.602 321.877,483.416 324.543,479.712C325.95,477.859 327.727,476.452 330.689,476.822C333.133,477.193 334.91,479.267 335.872,481.193" style="fill:rgb(149,151,153);"/>
        </g>
        <g transform="matrix(1.99712,0,0,1.99712,-246.722,-122.723)">
            <path d="M384.299,139.52C384.447,140.779 384.374,142.113 384.374,143.446C384.522,143.668 384.596,143.965 385.04,143.891C386.743,142.631 388.668,141.149 390.594,140.557C395.777,139.594 400.071,142.113 402.293,145.891C404.292,148.928 404.663,154.707 403.033,158.115C400.664,163.375 395.777,166.486 389.187,166.264C387.483,166.19 386.151,165.597 384.67,165.301L384.374,165.671L384.374,173.673C384.522,174.562 385.04,175.45 386.003,175.673C387.039,176.117 388.668,175.525 389.187,176.562C389.261,177.006 389.187,177.377 388.964,177.599C386.373,177.895 383.707,177.451 381.042,177.525C378.894,177.525 376.895,177.747 374.747,177.747C374.451,177.747 374.081,177.451 374.155,177.08C374.007,176.636 374.229,176.413 374.451,176.117C376.006,175.673 378.153,176.191 378.672,174.339L378.82,172.487L378.82,153.077L378.746,152.929C378.746,150.78 379.264,148.039 378.302,146.187C377.635,145.298 374.895,146.558 375.562,144.409C378.45,143.224 381.264,141.89 383.189,139.446C383.411,139.223 384.151,139.149 384.299,139.52ZM397.184,149.151C398.813,152.781 398.22,158.485 396.073,161.3C394.37,163.671 391.63,165.301 388.224,164.708C386.669,164.338 385.262,163.301 384.744,161.745L384.374,160.189L384.447,147.373C384.596,146.261 385.114,145.446 386.003,144.706C387.78,143.668 391.038,143.742 392.889,144.632C394.888,145.595 396.295,147.15 397.184,149.151Z" style="fill:rgb(149,151,153);"/>
        </g>
        <g transform="matrix(1.99712,0,0,1.99712,-246.722,-791.918)">
            <path d="M285.372,442.892C287.075,443.114 287.075,445.263 287.594,446.744C287.964,449.189 288.556,451.782 288.482,454.449C288.408,454.968 287.964,455.19 287.594,455.412C286.261,455.56 285.594,454.523 285.076,453.634C285.446,452.227 285.15,450.597 285.002,449.189C284.706,448.522 284.78,447.708 284.632,446.892L284.336,446.818C284.854,445.411 285.076,444.151 285.372,442.892" style="fill:rgb(149,151,153);"/>
        </g>
        <g transform="matrix(1.99712,0,0,1.99712,-246.722,-791.918)">
            <path d="M265.75,406.443C269.748,407.85 273.302,409.85 276.116,412.74C276.486,412.814 276.56,413.11 276.709,413.332C278.189,414.814 279.374,416.37 280.633,418.074C282.632,421.63 284.409,425.408 285.224,429.853C285.446,431.112 285.594,432.52 285.742,434.002L285.816,434.002C285.52,435.187 286.187,436.224 285.742,437.336C285.816,439.04 285.668,440.447 285.52,441.929C285.372,442.225 285.446,442.596 285.372,442.892C285.076,444.151 284.854,445.411 284.336,446.818C283.891,448.967 283.003,450.893 282.114,452.967C278.56,460.376 272.044,466.154 263.602,468.08C263.084,468.303 262.491,468.525 262.418,469.192C263.158,470.821 264.343,471.859 265.305,473.266L265.972,473.933C268.267,476.896 271.081,479.563 274.413,481.564C271.007,480.675 268.341,478.378 265.898,476.155C265.009,475.563 264.491,474.674 263.75,473.933C262.121,472.081 260.566,470.155 259.307,468.006C259.382,467.488 259.826,467.117 260.196,466.969C262.343,466.45 264.269,465.71 266.194,464.895C274.339,460.746 279.745,452.967 281.892,443.855C282.04,442.892 282.336,442.077 282.336,441.114C283.151,436.446 282.707,430.816 281.67,426.668C281.077,424.297 280.263,422.222 279.3,420.148C276.413,414.295 271.673,409.332 265.75,406.443" style="fill:rgb(211,212,214);"/>
        </g>
        <g transform="matrix(1.99712,0,0,1.99712,-246.722,-791.918)">
            <path d="M268.637,474.378C270.859,474.451 272.71,474.6 273.969,475.637C272.71,474.6 270.859,474.451 268.637,474.378" style="fill:rgb(0,173,239);"/>
        </g>
        <g transform="matrix(1.99712,0,0,1.99712,-246.722,-791.918)">
            <path d="M304.995,475.192C305.217,476.378 305.069,477.859 305.143,479.193C305.217,479.415 305.513,479.267 305.587,479.119C307.512,477.045 310.178,474.748 313.88,475.933C314.769,476.378 315.509,477.118 315.806,478.082C316.028,479.341 315.658,480.6 314.917,481.341C314.103,481.86 313.066,482.379 311.659,482.156C310.104,481.934 309.364,480.378 308.105,479.637C306.92,479.563 306.254,480.378 305.809,481.193C305.069,483.045 305.365,484.972 305.217,487.194L305.291,497.047C305.365,497.714 305.735,498.455 306.18,498.751C307.142,499.344 308.771,499.048 309.882,499.566C310.178,499.714 309.956,500.233 310.03,500.603C309.808,501.344 308.697,500.899 308.031,501.122C304.18,500.751 300.182,500.974 296.257,501.048C295.887,501.048 295.665,500.751 295.665,500.381C295.739,499.121 297.294,499.492 298.256,499.196C298.775,499.121 299.219,498.751 299.515,498.307L299.737,497.195L299.737,483.638C299.515,482.971 299.663,481.934 298.923,481.564C298.331,480.749 296.109,481.86 296.183,480.304C296.331,479.563 297.294,479.786 297.738,479.341C300.182,478.23 302.329,476.896 304.18,474.896C304.551,474.896 304.847,474.97 304.995,475.192" style="fill:rgb(149,151,153);"/>
        </g>
        <g transform="matrix(1.99712,0,0,1.99712,-246.722,-791.918)">
            <path d="M353.496,476.304C354.088,476.378 353.94,477.193 353.94,477.785C353.866,483.342 353.718,489.342 354.014,494.751C354.606,496.677 356.087,497.788 358.235,498.01C360.752,498.158 363.418,497.936 364.455,495.714C364.825,494.825 364.825,493.713 364.825,492.602C364.751,488.231 364.973,483.712 364.677,479.341C364.381,477.563 361.789,478.378 360.826,477.341C360.826,476.822 360.752,476.378 361.197,476.229C364.011,476.229 366.824,476.526 369.638,476.304C369.934,476.304 370.23,476.6 370.23,476.896L370.305,496.454C370.453,497.121 370.453,497.714 371.045,498.01C371.934,498.381 373.785,497.714 373.785,499.121L373.266,499.566C370.601,500.159 368.083,501.27 365.343,501.64C364.899,501.715 364.825,501.27 364.677,501.122C364.603,500.011 364.825,498.825 364.455,497.862C363.418,497.936 362.9,498.899 362.011,499.27C359.568,500.899 355.791,502.233 352.607,500.751C350.089,499.64 348.46,497.195 348.46,493.936L348.386,480.378C348.386,479.563 348.164,478.748 347.646,478.378C346.757,477.563 344.092,478.526 344.388,476.6C344.832,475.933 345.943,476.304 346.683,476.229C348.831,476.452 351.274,476.452 353.496,476.304" style="fill:rgb(149,151,153);"/>
        </g>
        <g transform="matrix(1.99712,0,0,1.99712,-246.722,-791.918)">
            <path d="M250.866,406.22C249.533,406.517 248.571,407.035 247.386,407.332C240.795,410.369 237.834,417.407 236.427,424.741C236.279,426.149 235.983,427.408 235.908,428.816C235.464,431.409 235.612,434.595 235.686,437.336C235.834,438.151 235.834,439.114 236.057,439.929C236.501,443.188 237.167,446.152 238.352,449.263C237.982,449.856 238.574,450.078 238.574,450.522C239.685,453.856 241.388,456.746 243.387,459.338C244.054,460.376 244.868,461.19 245.757,462.005L246.201,462.154C247.608,463.487 249.311,464.45 251.236,465.043C251.755,465.413 252.717,465.265 253.236,465.635C252.421,465.784 251.532,465.635 250.866,465.413C244.498,464.154 240.795,458.524 238.204,453.338C236.057,448.3 234.501,442.818 234.057,436.595C234.205,435.187 233.835,434.002 234.057,432.668C233.909,430.89 234.353,429.557 234.353,427.853C234.428,427.26 234.501,426.668 234.576,426.001C234.798,425.112 234.946,424.149 235.168,423.26C236.427,418.222 238.204,413.555 241.61,410.073C242.202,409.628 242.795,409.184 243.313,408.665C245.09,407.332 247.312,406.591 249.903,406.22L250.866,406.22" style="fill:rgb(211,212,214);"/>
        </g>
        <g transform="matrix(1.99712,0,0,1.99712,-246.722,-791.918)">
            <path d="M286.705,483.045L286.927,483.564C287.001,484.008 286.853,484.231 286.779,484.527C285.372,485.638 283.521,486.157 281.596,486.527C279.745,486.972 277.745,487.12 275.524,487.12C272.044,487.194 269.082,486.453 266.194,485.638C265.75,485.342 265.009,485.268 264.565,484.897C266.12,485.046 267.527,485.712 269.304,485.712C272.488,486.231 276.19,485.86 279.152,485.268C280.929,484.972 282.632,484.527 283.743,483.342C284.409,483.193 284.928,482.971 285.52,482.823C285.965,482.897 286.557,482.675 286.705,483.045" style="fill:rgb(211,212,214);"/>
        </g>
        <g transform="matrix(1.99712,0,0,1.99712,-246.722,-791.918)">
            <path d="M346.387,427.853L346.239,431.557L346.239,458.968C346.313,459.486 346.535,459.931 346.905,460.227C347.498,460.524 348.238,460.598 348.757,460.524C349.053,460.82 349.571,460.82 349.867,461.116C350.016,461.339 349.941,461.635 349.941,461.931C349.571,462.45 348.683,462.154 348.09,462.154C344.684,461.783 341.13,462.154 337.798,462.154C337.65,462.08 337.427,462.228 337.353,462.005C337.279,461.709 337.057,461.413 337.279,461.116C338.242,460.227 340.315,461.042 340.834,459.486L340.982,457.709L340.982,433.335C340.908,432.52 340.611,431.927 339.945,431.409C339.353,431.112 338.464,431.409 337.946,430.89C337.872,430.446 337.946,429.853 338.464,429.853C341.056,429.26 343.203,428.52 345.499,427.334C346.017,427.186 346.239,427.557 346.387,427.853" style="fill:black;"/>
        </g>
        <g transform="matrix(1.99712,0,0,1.99712,-246.722,-791.918)">
            <path d="M360.604,430.668C360.975,431.557 361.049,432.965 360.382,433.779C359.79,434.669 358.605,435.039 357.346,434.965C357.198,434.891 356.976,434.817 356.828,434.743C355.791,434.298 355.051,433.483 354.977,432.298C354.903,431.039 355.569,430.075 356.532,429.483C357.939,428.742 359.716,429.26 360.604,430.668" style="fill:black;"/>
        </g>
        <g transform="matrix(1.99712,0,0,1.99712,-246.722,-791.918)">
            <path d="M371.637,433.557C372.082,433.854 371.563,434.224 371.785,434.669L371.785,438.225C371.934,438.743 372.452,438.817 372.97,438.817C374.673,438.891 376.302,438.817 378.006,438.743C378.524,439.04 378.228,439.78 378.302,440.225C378.228,440.521 378.153,440.743 377.857,440.892C375.932,440.966 373.859,440.892 372.082,440.966L371.785,441.336L371.859,456.375C372.008,457.635 372.452,458.968 373.637,459.338C375.488,460.005 377.043,458.672 378.45,458.005C378.746,458.005 378.968,458.079 379.116,458.301C379.116,459.413 377.857,460.153 377.117,460.746C375.192,462.302 371.785,463.043 369.342,461.931C367.417,460.894 366.602,459.042 366.602,456.672L366.602,441.558C366.602,441.262 366.306,441.04 366.084,440.892C365.269,440.743 364.233,441.04 363.492,440.743C363.27,440.521 363.344,440.077 363.492,439.78C365.121,438.595 367.194,437.928 368.527,435.928C369.416,435.113 369.86,433.928 370.749,433.261C371.119,433.335 371.563,433.187 371.637,433.557" style="fill:black;"/>
        </g>
        <g transform="matrix(1.99712,0,0,1.99712,-246.722,-791.918)">
            <path d="M360.456,438.373L360.604,440.818L360.604,458.82C360.678,459.486 360.9,459.931 361.493,460.302C362.381,460.82 364.011,460.302 364.381,461.413C364.455,461.857 364.233,462.228 363.788,462.228C359.938,461.931 355.865,461.931 352.089,462.228C351.941,462.154 351.645,462.005 351.645,461.857C351.496,461.339 351.718,461.042 352.089,460.82C353.125,460.45 354.606,460.746 355.199,459.561L355.421,457.931L355.347,445.559C355.347,444.818 354.977,444.077 354.31,443.707C353.644,443.336 352.459,443.781 352.089,442.966C352.015,442.596 352.089,442.299 352.311,442.151C353.792,441.484 355.347,441.114 356.68,440.225C357.865,439.632 358.679,438.595 359.864,438.076C360.086,438.076 360.456,438.076 360.456,438.373" style="fill:black;"/>
        </g>
        <g transform="matrix(1.99712,0,0,1.99712,-246.722,-791.918)">
            <path d="M393.037,439.04C393.037,439.41 393.111,439.854 392.741,440.003C391.556,440.299 389.853,440.003 389.483,441.336C389.557,442.003 389.779,442.67 390.001,443.262C391.63,447.263 393.185,451.041 394.814,455.116L395.036,454.894L399.849,443.336C399.998,442.596 400.442,441.855 400.071,440.966C399.479,439.706 397.702,440.447 396.591,439.854C396.517,439.558 396.517,439.188 396.591,438.891C396.888,438.669 397.406,438.595 397.85,438.595C400.664,438.891 403.256,438.891 406.069,438.595C406.218,438.743 406.366,438.743 406.514,438.965C406.588,439.262 406.662,439.78 406.292,439.929C405.329,440.299 403.922,439.854 403.33,440.966C401.997,443.04 401.182,445.189 399.998,447.559L399.924,447.559C396.147,455.412 392.667,464.302 389.705,472.525C388.89,473.562 387.187,473.34 385.854,473.414C385.41,473.192 384.818,473.118 384.447,472.748C383.633,472.081 384.003,470.673 384.151,469.784C384.374,469.414 384.744,468.969 385.188,468.821C386.299,468.525 387.928,469.043 388.964,468.377C390.223,466.524 391.112,464.672 391.704,462.376C391.556,461.635 391.334,460.968 391.038,460.376C390.964,459.635 390.445,458.82 390.149,458.005C387.928,452.597 385.78,447.041 383.485,441.633C383.041,440.299 381.338,440.151 379.931,439.929C379.708,439.78 379.635,439.484 379.708,439.188C379.857,438.817 380.227,438.669 380.597,438.595C384.299,438.743 388.076,438.965 391.778,438.595C392.223,438.669 392.815,438.521 393.037,439.04" style="fill:black;"/>
        </g>
        <g transform="matrix(1.99712,0,0,1.99712,-246.722,-791.918)">
            <path d="M294.924,438.743C295.295,438.817 295.517,439.188 295.443,439.632L295.443,455.857C295.665,457.486 296.924,458.746 298.479,459.19C300.848,459.783 304.032,459.486 305.439,457.412C305.809,456.894 305.735,456.079 305.809,455.412C305.809,450.893 305.809,446.3 305.735,441.855C305.661,441.262 305.439,440.892 304.921,440.521C304.106,440.151 302.847,440.299 302.107,439.706C301.959,439.558 301.959,439.114 302.107,438.817L302.477,438.595C305.143,438.743 307.734,439.04 310.4,438.743C310.697,438.743 310.844,438.965 310.919,439.262L310.993,457.931C310.919,458.449 311.141,458.82 311.437,459.19C312.177,459.783 313.362,459.413 314.177,459.783C314.325,459.931 314.325,460.302 314.177,460.45C313.362,461.116 312.177,461.042 311.215,461.561C310.548,461.635 310.03,461.857 309.364,462.005C308.179,462.228 307.216,462.894 305.957,462.672L305.661,462.302L305.661,459.486C305.587,459.338 305.513,459.19 305.365,459.042C304.402,459.486 303.662,460.153 302.773,460.746C300.626,462.08 297.442,463.043 294.702,462.154C292.184,461.339 290.555,458.82 290.333,456.227C290.111,451.263 290.407,446.3 290.037,441.41C289.593,439.78 287.297,440.743 286.409,439.558C286.409,439.188 286.409,438.743 286.853,438.595C289.667,438.891 292.11,438.817 294.924,438.743" style="fill:black;"/>
        </g>
        <g transform="matrix(1.99712,0,0,1.99712,-246.722,-791.918)">
            <path d="M272.192,439.336C272.192,440.447 272.118,441.781 271.896,442.818C268.86,441.855 264.565,441.41 261.159,442.225C252.199,444.077 246.423,451.486 243.387,459.338C241.388,456.746 239.685,453.856 238.574,450.522C238.574,450.078 237.982,449.856 238.352,449.263C246.719,441.558 259.011,438.151 272.192,439.336" style="fill:black;"/>
        </g>
        <g transform="matrix(1.99712,0,0,1.99712,-246.722,-791.918)">
            <path d="M285.076,453.634C284.78,454.005 284.261,454.301 283.669,454.153C283.077,454.005 282.484,453.412 282.114,452.967C283.003,450.893 283.891,448.967 284.336,446.818L284.632,446.892C284.78,447.708 284.706,448.522 285.002,449.189C285.15,450.597 285.446,452.227 285.076,453.634" style="fill:black;"/>
        </g>
        <g transform="matrix(1.99712,0,0,1.99712,-246.722,-791.918)">
            <path d="M131.376,500.569L126.268,489.439L126.268,498.278C126.268,499.091 126.354,499.597 126.531,499.8C126.77,500.072 127.153,500.209 127.672,500.209L128.138,500.209L128.138,500.569L123.539,500.569L123.539,500.209L124.005,500.209C124.564,500.209 124.96,500.039 125.196,499.7C125.339,499.493 125.41,499.017 125.41,498.278L125.41,489.636C125.41,489.05 125.346,488.627 125.216,488.367C125.123,488.177 124.957,488.021 124.714,487.895C124.468,487.768 124.078,487.705 123.539,487.705L123.539,487.342L127.283,487.342L132.078,497.692L136.796,487.342L140.54,487.342L140.54,487.705L140.08,487.705C139.515,487.705 139.115,487.875 138.883,488.211C138.74,488.421 138.666,488.893 138.666,489.636L138.666,498.278C138.666,499.091 138.759,499.597 138.942,499.8C139.182,500.072 139.561,500.209 140.08,500.209L140.54,500.209L140.54,500.569L134.923,500.569L134.923,500.209L135.392,500.209C135.958,500.209 136.354,500.039 136.583,499.7C136.726,499.493 136.796,499.017 136.796,498.278L136.796,489.439L131.699,500.569L131.376,500.569ZM143.085,494.999C143.079,496.327 143.398,497.366 144.05,498.122C144.699,498.874 145.464,499.25 146.34,499.25C146.925,499.25 147.434,499.091 147.867,498.768C148.299,498.448 148.659,497.895 148.951,497.116L149.254,497.309C149.118,498.202 148.722,499.014 148.066,499.743C147.407,500.476 146.586,500.842 145.601,500.842C144.526,500.842 143.607,500.425 142.846,499.59C142.08,498.754 141.701,497.629 141.701,496.218C141.701,494.689 142.09,493.498 142.875,492.645C143.657,491.79 144.639,491.36 145.824,491.36C146.825,491.36 147.647,491.69 148.289,492.352C148.931,493.012 149.254,493.894 149.254,494.999L143.085,494.999ZM143.085,494.433L147.218,494.433C147.185,493.86 147.118,493.458 147.012,493.225C146.852,492.862 146.609,492.575 146.286,492.365C145.964,492.159 145.627,492.053 145.278,492.053C144.739,492.053 144.257,492.263 143.831,492.682C143.405,493.101 143.155,493.687 143.085,494.433ZM153.094,493.274C153.746,492.622 154.129,492.249 154.246,492.153C154.538,491.903 154.854,491.713 155.191,491.577C155.53,491.44 155.863,491.37 156.195,491.37C156.755,491.37 157.237,491.533 157.639,491.86C158.042,492.183 158.312,492.655 158.448,493.274C159.117,492.492 159.683,491.979 160.145,491.736C160.605,491.493 161.08,491.37 161.566,491.37C162.042,491.37 162.461,491.493 162.831,491.736C163.197,491.979 163.486,492.379 163.702,492.931C163.846,493.308 163.915,493.9 163.915,494.706L163.915,498.551C163.915,499.111 163.959,499.493 164.042,499.7C164.108,499.843 164.228,499.966 164.404,500.066C164.581,500.166 164.864,500.219 165.263,500.219L165.263,500.569L160.854,500.569L160.854,500.219L161.041,500.219C161.423,500.219 161.723,500.143 161.939,499.993C162.089,499.889 162.195,499.723 162.258,499.496C162.285,499.387 162.298,499.071 162.298,498.551L162.298,494.706C162.298,493.977 162.212,493.464 162.035,493.165C161.783,492.749 161.377,492.542 160.817,492.542C160.471,492.542 160.125,492.629 159.78,492.799C159.43,492.971 159.011,493.291 158.515,493.761L158.495,493.867L158.515,494.287L158.515,498.551C158.515,499.16 158.552,499.54 158.618,499.69C158.688,499.84 158.814,499.966 159.004,500.066C159.19,500.166 159.513,500.219 159.969,500.219L159.969,500.569L155.453,500.569L155.453,500.219C155.95,500.219 156.289,500.159 156.475,500.042C156.658,499.926 156.788,499.75 156.858,499.517C156.891,499.403 156.908,499.084 156.908,498.551L156.908,494.706C156.908,493.977 156.801,493.454 156.585,493.138C156.299,492.722 155.899,492.512 155.387,492.512C155.034,492.512 154.688,492.605 154.342,492.795C153.803,493.082 153.387,493.404 153.094,493.761L153.094,498.551C153.094,499.134 153.137,499.517 153.218,499.69C153.297,499.866 153.42,500 153.577,500.086C153.736,500.172 154.059,500.219 154.548,500.219L154.548,500.569L150.133,500.569L150.133,500.219C150.542,500.219 150.828,500.172 150.991,500.086C151.151,500 151.277,499.859 151.36,499.667C151.444,499.473 151.487,499.104 151.487,498.551L151.487,495.136C151.487,494.153 151.457,493.521 151.401,493.235C151.354,493.018 151.281,492.872 151.184,492.792C151.088,492.709 150.955,492.669 150.785,492.669C150.602,492.669 150.386,492.718 150.133,492.815L149.987,492.462L152.675,491.37L153.094,491.37L153.094,493.274ZM168.421,493.175C169.286,491.973 170.218,491.37 171.219,491.37C172.134,491.37 172.933,491.763 173.615,492.546C174.297,493.331 174.64,494.4 174.64,495.761C174.64,497.346 174.114,498.624 173.06,499.593C172.157,500.425 171.149,500.842 170.038,500.842C169.519,500.842 168.99,500.749 168.454,500.559C167.918,500.369 167.369,500.086 166.81,499.71L166.81,490.455C166.81,489.439 166.787,488.817 166.737,488.581C166.691,488.347 166.614,488.188 166.511,488.104C166.404,488.018 166.275,487.978 166.118,487.978C165.939,487.978 165.709,488.028 165.436,488.134L165.3,487.791L167.982,486.699L168.421,486.699L168.421,493.175ZM168.421,493.8L168.421,499.144C168.75,499.47 169.093,499.717 169.449,499.879C169.802,500.046 170.164,500.129 170.537,500.129C171.126,500.129 171.678,499.803 172.187,499.154C172.697,498.505 172.953,497.559 172.953,496.317C172.953,495.172 172.697,494.293 172.187,493.677C171.678,493.065 171.1,492.755 170.447,492.755C170.105,492.755 169.758,492.845 169.416,493.018C169.156,493.148 168.824,493.411 168.421,493.8ZM177.459,494.999C177.452,496.327 177.771,497.366 178.423,498.122C179.072,498.874 179.838,499.25 180.713,499.25C181.298,499.25 181.807,499.091 182.24,498.768C182.673,498.448 183.032,497.895 183.325,497.116L183.628,497.309C183.491,498.202 183.095,499.014 182.44,499.743C181.781,500.476 180.959,500.842 179.974,500.842C178.899,500.842 177.981,500.425 177.219,499.59C176.454,498.754 176.074,497.629 176.074,496.218C176.074,494.689 176.464,493.498 177.249,492.645C178.031,491.79 179.013,491.36 180.197,491.36C181.199,491.36 182.02,491.69 182.663,492.352C183.305,493.012 183.628,493.894 183.628,494.999L177.459,494.999ZM177.459,494.433L181.591,494.433C181.558,493.86 181.492,493.458 181.385,493.225C181.225,492.862 180.982,492.575 180.66,492.365C180.337,492.159 180.001,492.053 179.651,492.053C179.112,492.053 178.63,492.263 178.204,492.682C177.778,493.101 177.528,493.687 177.459,494.433ZM187.431,491.37L187.431,493.381C188.176,492.039 188.945,491.37 189.73,491.37C190.087,491.37 190.383,491.48 190.619,491.696C190.852,491.916 190.968,492.169 190.968,492.452C190.968,492.709 190.885,492.922 190.715,493.098C190.546,493.274 190.346,493.361 190.11,493.361C189.883,493.361 189.627,493.248 189.344,493.025C189.062,492.802 188.852,492.689 188.716,492.689C188.599,492.689 188.473,492.752 188.336,492.882C188.043,493.148 187.741,493.588 187.431,494.2L187.431,498.481C187.431,498.974 187.491,499.35 187.614,499.603C187.701,499.78 187.85,499.926 188.063,500.042C188.28,500.159 188.586,500.219 188.988,500.219L188.988,500.569L184.416,500.569L184.416,500.219C184.872,500.219 185.212,500.146 185.431,500.003C185.594,499.9 185.708,499.733 185.774,499.507C185.804,499.394 185.82,499.081 185.82,498.558L185.82,495.095C185.82,494.057 185.801,493.438 185.757,493.238C185.718,493.042 185.637,492.895 185.524,492.805C185.411,492.715 185.268,492.669 185.098,492.669C184.899,492.669 184.673,492.718 184.416,492.815L184.32,492.462L187.022,491.37L187.431,491.37ZM200.824,491.37C202.175,491.37 203.26,491.886 204.082,492.911C204.777,493.79 205.124,494.799 205.124,495.934C205.124,496.737 204.931,497.546 204.548,498.365C204.165,499.184 203.636,499.803 202.964,500.219C202.292,500.635 201.543,500.842 200.718,500.842C199.37,500.842 198.302,500.306 197.51,499.234C196.841,498.328 196.505,497.312 196.505,496.191C196.505,495.369 196.708,494.556 197.114,493.747C197.52,492.938 198.056,492.339 198.718,491.953C199.38,491.563 200.082,491.37 200.824,491.37ZM200.522,492.006C200.179,492.006 199.833,492.106 199.483,492.312C199.137,492.519 198.854,492.875 198.642,493.391C198.425,493.904 198.319,494.563 198.319,495.369C198.319,496.67 198.578,497.792 199.094,498.734C199.61,499.677 200.292,500.149 201.137,500.149C201.766,500.149 202.285,499.889 202.698,499.37C203.107,498.848 203.31,497.955 203.31,496.687C203.31,495.099 202.97,493.85 202.285,492.941C201.826,492.316 201.237,492.006 200.522,492.006ZM209.929,492.336L209.929,498.208C209.929,499.041 210.022,499.567 210.201,499.79C210.445,500.076 210.764,500.219 211.167,500.219L211.978,500.219L211.978,500.569L206.644,500.569L206.644,500.219L207.044,500.219C207.303,500.219 207.543,500.153 207.756,500.023C207.969,499.893 208.118,499.717 208.198,499.496C208.281,499.273 208.322,498.844 208.322,498.208L208.322,492.336L206.584,492.336L206.584,491.633L208.322,491.633L208.322,491.051C208.322,490.158 208.464,489.403 208.751,488.787C209.037,488.168 209.473,487.668 210.062,487.289C210.651,486.909 211.31,486.719 212.045,486.719C212.727,486.719 213.356,486.939 213.928,487.382C214.304,487.675 214.491,488.004 214.491,488.367C214.491,488.564 214.407,488.747 214.238,488.917C214.068,489.09 213.888,489.177 213.692,489.177C213.542,489.177 213.386,489.123 213.219,489.016C213.053,488.91 212.85,488.677 212.61,488.324C212.371,487.968 212.148,487.731 211.948,487.605C211.745,487.482 211.523,487.422 211.276,487.422C210.977,487.422 210.724,487.502 210.514,487.661C210.308,487.818 210.158,488.068 210.065,488.401C209.975,488.737 209.929,489.599 209.929,490.991L209.929,491.633L212.231,491.633L212.231,492.336L209.929,492.336" style="fill:rgb(41,37,38);"/>
        </g>
    </g>
</svg>
